HIERARCHY
ROOT Hip
{
	OFFSET 0 0 0
	CHANNELS 6 Xposition Yposition Zposition Zrotation Yrotation Xrotation
	JOINT ShoulderCenter
	{
		OFFSET 0 0.4363 0
		CHANNELS 3 Zrotation Yrotation Xrotation
		JOINT Head
		{
			OFFSET 0 0.1849 0
			CHANNELS 3 Zrotation Yrotation Xrotation
			End Site
			{
				OFFSET 0.0 0.0891 0.0
			}
		}
		JOINT ShoulderLeft
		{
			OFFSET -0.14 0 0
			CHANNELS 3 Zrotation Yrotation Xrotation
			JOINT ElbowLeft
			{
				OFFSET -0.25 0 0
				CHANNELS 3 Zrotation Yrotation Xrotation
				JOINT WristLeft
				{
					OFFSET -0.23 0 0
					CHANNELS 3 Zrotation Yrotation Xrotation
					End Site
					{
						OFFSET -0.0832 0.0 0.0
					}
				}
			}
		}
		JOINT ShoulderRight
		{
			OFFSET 0.14 0 0
			CHANNELS 3 Zrotation Yrotation Xrotation
			JOINT ElbowRight
			{
				OFFSET 0.25 0 0
				CHANNELS 3 Zrotation Yrotation Xrotation
				JOINT WristRight
				{
					OFFSET 0.23 0 0
					CHANNELS 3 Zrotation Yrotation Xrotation
					End Site
					{
						OFFSET 0.0832 0.0 0.0
					}
				}
			}
		}
	}
	JOINT HipLeft
	{
		OFFSET -0.0952 0 0
		CHANNELS 3 Zrotation Yrotation Xrotation
		JOINT KneeLeft
		{
			OFFSET 0 -0.3732 0
			CHANNELS 3 Zrotation Yrotation Xrotation
			JOINT AnkleLeft
			{
				OFFSET 0 -0.346 0
				CHANNELS 3 Zrotation Yrotation Xrotation
				End Site
				{
					OFFSET 0.0 0.0 0.0891
				}
			}
		}
	}
	JOINT HipRight
	{
		OFFSET 0.0952 0 0
		CHANNELS 3 Zrotation Yrotation Xrotation
		JOINT KneeRight
		{
			OFFSET 0 -0.3732 0
			CHANNELS 3 Zrotation Yrotation Xrotation
			JOINT AnkleRight
			{
				OFFSET 0 -0.346 0
				CHANNELS 3 Zrotation Yrotation Xrotation
				End Site
				{
					OFFSET 0.0 0.0 0.0891
				}
			}
		}
	}
}
MOTION
Frames: 26
Frame Time: 0.033333
6.5512e-05 -4.71148e-05 -0.00249149 1.05999 0.122801 -5.545 -1.22324 -0.442099 -2.26372 0 0 0 0 0 0 0 0 0 0 0 0 0 0 0 0 0 0 0 0 0 2.20602 4.495 0.0331634 -10.226 -5.40951 -33.2123 0 0 0 -4.15939 -30.1034 0.895591 34.6231 17.1826 -32.4443 0 0 4.26887e-07 
6.5512e-05 -4.69927e-05 -0.00249126 1.03889 0.101627 -5.54636 -1.2236 -0.436082 -2.27029 0 0 0 0 0 0 0 0 0 0 0 0 0 0 0 0 0 0 0 0 0 2.24553 4.49577 0.053759 -10.2103 -5.43055 -33.2258 0 0 0 -4.10447 -29.9959 0.843996 34.6017 17.1119 -32.4354 0 0 0 
6.5512e-05 -4.68811e-05 -0.00249115 1.00688 0.0856179 -5.51196 -1.30715 -0.410621 -2.28647 0 0 0 0 0 0 0 0 0 0 0 0 0 0 0 0 0 0 0 0 0 2.27964 7.0674 0.020648 -15.3669 -8.3497 -31.368 0 0 0 -4.05262 -29.9933 0.808033 34.6209 17.0846 -32.4223 0 0 0 
6.54812e-05 -4.68069e-05 -0.00249108 0.974765 0.0774883 -5.50589 -1.31903 -0.431597 -2.28014 0 0 0 0 0 0 0 0 0 0 0 0 0 0 0 0 0 0 0 0 0 2.31329 7.0617 0.0152245 -15.3678 -8.34019 -31.354 0 4.26887e-07 0 -3.9713 -27.092 0.780551 31.4361 16.3239 -35.4481 0 0 0 
6.55177e-05 -4.68069e-05 -0.00249108 0.979205 0.0791885 -5.50588 -1.40332 -0.431176 -2.23613 0 0 0 0 0 0 0 0 0 0 0 0 0 0 0 0 0 0 0 0 0 2.37321 7.16562 0.0470593 -15.5495 -8.39585 -31.3577 0 0 0 -4.06247 -32.4104 0.824799 37.344 17.4032 -29.6444 0 0 0 
6.55402e-05 -4.68069e-05 -0.00249108 0.967018 0.0877314 -5.5059 -1.49604 -0.440276 -2.23094 0 0 0 0 0 0 0 0 0 0 0 0 0 0 0 0 0 0 0 0 0 2.39536 7.95757 0.0482547 -15.6187 -8.87754 -33.5622 0 0 0 -3.64151 -2.50692 0.735188 8.1781 1.85601 -29.4091 3.18677e-15 1.06722e-07 3.42176e-06 
6.57804e-05 -4.70234e-05 -0.00249119 0.868619 0.339893 -5.49012 -1.35864 -0.692721 -2.14607 3.33505e-09 0 0 0 0 0 0 0 0 0 0 0 0 0 0 0 0 0 0 0 0 2.46932 8.6058 0.0866816 -16.7908 -9.08316 -33.4125 0 0 0 -3.53277 -0.698505 0.699304 3.14014 -0.544272 -29.0941 0 0 0 
6.61307e-05 -4.72332e-05 -0.0024912 0.817765 0.416104 -5.48584 -1.27986 -0.763281 -2.12168 0 0 0 0 0 0 0 0 0 0 0 0 0 0 0 0 0 0 0 0 0 2.49912 8.81796 0.0775604 -16.9015 -9.16436 -33.8056 0 0 0 -3.36719 -0.56785 0.679708 2.70069 -0.597307 -28.497 0 0 0 
6.65113e-05 -4.74129e-05 -0.00249122 0.742891 0.490261 -5.486 -1.10827 -0.822348 -2.10911 2.50129e-08 0 0 0 0 0 0 0 0 0 0 0 0 0 0 0 0 0 0 0 0 2.55153 8.83057 0.0654246 -16.9898 -9.10744 -33.748 0 0 -2.66804e-08 -3.30877 1.96503 0.664022 -4.44677 -4.69447 -29.5239 0 0 0 
6.71333e-05 -4.75103e-05 -0.00249136 0.717228 0.468853 -5.46978 -1.01934 -0.785362 -2.11853 0 0 0 0 0 0 0 0 0 0 0 0 0 0 0 0 0 0 0 0 0 2.52512 9.94236 0.0453339 -18.7143 -10.0696 -33.0595 0 0 0 -3.31728 4.02717 0.64339 -9.87646 -7.58382 -28.4735 0 0 0 
6.76947e-05 -4.76052e-05 -0.00249145 0.699752 0.345924 -5.45801 -0.97837 -0.676548 -2.13732 0 0 0 0 0 0 0 0 0 0 0 0 0 0 0 0 0 0 0 0 0 2.53891 9.33461 0.0125318 -16.5437 -9.35464 -35.7924 -1.06722e-07 -4.26887e-07 2.66804e-08 -3.27836 7.76288 0.628879 -15.2313 -11.9148 -30.4848 0 0 0 
6.80186e-05 -4.75103e-05 -0.00249153 0.64238 0.323773 -5.48252 -0.916041 -0.657051 -2.10175 2.50129e-08 -1.86372e-16 8.53826e-07 0 0 0 0 0 0 0 0 0 0 0 0 0 0 0 0 0 0 2.5897 10.2344 0.0429813 -16.8239 -9.946 -37.2076 0 0 0 -3.2367 7.76157 0.676702 -15.1819 -11.9288 -30.5402 0 0 0 
6.85456e-05 -4.75103e-05 -0.00249173 0.598204 0.302521 -5.5334 -0.868823 -0.58596 -1.93385 0 0 0 0 0 0 0 0 0 0 0 0 0 0 0 0 0 0 0 0 0 2.61826 16.4304 0.0951624 -22.2051 -14.1445 -37.5196 0 0 0 -3.06981 8.23655 0.830302 -15.9507 -12.3154 -30.4131 0 0 0 
6.93937e-05 -4.73351e-05 -0.00249243 0.535725 0.245769 -5.62274 -0.73246 -0.484051 -1.78852 0 0 0 0 0 0 0 0 0 0 0 0 0 0 0 0 0 0 0 0 0 2.6656 12.7296 0.156037 -19.3394 -12.159 -36.8358 0 0 0 -2.9571 8.00573 0.873157 -16.1408 -12.1444 -29.5033 0 0 0 
7.02715e-05 -4.71219e-05 -0.00249275 0.593952 0.212361 -5.6258 -0.871356 -0.47878 -1.78841 0 0 0 0 0 0 0 0 0 0 0 0 0 0 0 0 0 0 0 0 0 2.44198 11.855 0.12493 -18.1194 -11.4879 -37.4881 -1.06722e-07 0 0 -3.09498 8.12435 0.888412 -16.2579 -12.2489 -29.593 0 0 0 
7.10915e-05 -4.6957e-05 -0.00249387 0.637652 0.0843487 -5.65454 -0.915036 -0.443191 -1.65495 0 1.66753e-09 0 0 0 0 0 0 0 0 0 0 0 0 0 0 0 0 0 0 0 2.28532 13.486 0.0352773 -19.6116 -12.6618 -37.4801 0 0 0 -3.14851 6.50456 0.823461 -15.0461 -10.3825 -27.6677 0 0 0 
7.11197e-05 -4.67224e-05 -0.00249454 0.564353 0.285602 -5.65732 -0.867701 -0.653539 -1.71188 0 0 0 0 0 0 0 0 0 0 0 0 0 0 0 0 0 0 0 0 0 2.32277 9.55031 -0.0266069 -17.1011 -9.85939 -34.9196 0 0 0 -3.13343 7.83415 0.743073 -15.8844 -11.8957 -29.6284 0 0 0 
7.17683e-05 -4.65895e-05 -0.00249549 0.552574 0.242905 -5.70814 -0.777209 -0.594223 -1.49855 -1.66753e-09 8.33763e-10 -1.21329e-20 0 0 0 0 0 0 0 0 0 0 0 0 0 0 0 0 0 0 2.34513 8.60312 -0.0327266 -16.551 -9.01653 -33.8834 0 0 0 -3.13349 6.80795 0.759975 -13.2761 -10.8861 -31.4148 1.70755e-06 -4.26887e-07 3.41509e-06 
7.25301e-05 -4.65895e-05 -0.00249685 0.557231 -0.145293 -5.66323 -0.545953 -0.234116 -1.42974 0 0 0 0 0 0 0 0 0 0 0 0 0 0 0 0 0 0 0 0 0 2.20559 8.75643 -0.261905 -16.0312 -9.02866 -35.2407 0 0 0 -3.24606 -7.64508 0.625253 12.6641 6.95053 -40.3395 0 0 0 
7.29909e-05 -4.6063e-05 -0.00249837 0.566525 -0.604038 -5.72693 -0.399446 0.107984 -1.2365 0 0 0 0 0 0 0 0 0 0 0 0 0 0 0 0 0 0 0 0 0 2.25385 8.57445 -0.313799 -15.7787 -8.77462 -35.3802 0 0 2.66804e-08 -3.27128 -8.72787 0.623657 14.0186 8.05236 -39.9822 0 0 0 
7.35169e-05 -4.5363e-05 -0.00249972 0.593868 -0.74132 -5.69965 -0.312984 0.048 -1.24834 0 0 0 0 0 0 0 0 0 0 0 0 0 0 0 0 0 0 0 0 0 2.23228 8.30745 -0.264451 -15.2655 -8.83297 -35.3646 0 0 0 -3.21132 -8.62552 0.534168 14.0796 7.65938 -40.0754 0 0 0 
7.35623e-05 -4.50943e-05 -0.00250033 0.576889 -0.914214 -5.73955 -0.205776 0.114699 -1.22707 0 0 0 0 0 0 0 0 0 0 0 0 0 0 0 0 0 0 0 0 0 2.29637 8.28498 -0.260006 -15.1802 -8.85686 -35.4154 0 0 0 -3.18888 -9.09928 0.562813 14.8964 8.10463 -39.5315 0 0 0 
7.4552e-05 -4.41251e-05 -0.00250223 0.635184 -1.11692 -5.79362 -0.0235155 0.239366 -1.033 -5.00258e-08 1.10057e-07 -4.80461e-17 0 0 0 0 0 0 0 0 0 0 0 0 0 0 0 0 0 0 2.17623 7.38448 -0.329023 -13.3866 -7.94259 -36.5822 0 0 0 -3.3374 -9.18194 0.504718 15.1852 8.10044 -39.277 0 0 0 
7.46403e-05 -4.40128e-05 -0.00250316 0.65157 -1.47897 -5.74642 0.132692 0.489404 -1.23967 0 0 0 0 0 0 0 0 0 0 0 0 0 0 0 0 0 0 0 0 0 2.17589 8.6731 -0.39552 -15.2062 -9.40617 -35.9828 -2.66804e-08 1.55301e-18 6.67011e-09 -3.32133 -9.35333 0.471135 15.5992 8.08405 -39.091 0 0 0 
7.50524e-05 -4.33724e-05 -0.00250437 0.709218 -1.65733 -5.76419 0.202191 0.548436 -1.57182 0 0 0 0 0 0 0 0 0 0 0 0 0 0 0 0 0 0 0 0 0 2.10205 6.4807 -0.461415 -12.6063 -7.41821 -35.2001 0 0 0 -3.35357 -9.48365 0.445029 15.8806 8.17206 -38.8722 0 0 0 
7.50593e-05 -4.31809e-05 -0.00250498 0.709951 -1.68032 -5.81181 0.245362 0.439706 -1.59536 -6.67011e-09 -3.33505e-09 1.94126e-19 0 0 0 0 0 0 0 0 0 0 0 0 0 0 0 0 0 0 2.10021 7.30648 -0.44104 -12.4586 -7.99337 -37.9109 0 0 0 -3.35798 -9.87775 0.473348 16.4814 8.52846 -38.5392 0 0 0 
